<svg xmlns="http://www.w3.org/2000/svg" viewBox="0 0 100 100">
  <path fill="#ff4747" d="M50 85c-1.5 0-3-0.5-4.2-1.6C42.5 80.5 10 52 10 32c0-11 9-20 20-20 7 0 13.3 3.6 17 9.5C50.7 15.6 57 12 64 12c11 0 20 9 20 20 0 20-32.5 48.5-35.8 51.4-1.2 1.1-2.7 1.6-4.2 1.6zM30 18c-7.7 0-14 6.3-14 14 0 15.5 25.5 40 34 47.5 8.5-7.5 34-32 34-47.5 0-7.7-6.3-14-14-14-5.8 0-11 3.6-13 9l-2 5-2-5c-2-5.4-7.2-9-13-9z"/>
  <path fill="#ff4747" d="M50 85L45.8 83.4C12.5 63 10 32 10 32c0-11 9-20 20-20 7 0 13.3 3.6 17 9.5C50.7 15.6 57 12 64 12c11 0 20 9 20 20 0 0-2.5 31-35.8 51.4L50 85z"/>
</svg>
